<mxfile host="app.diagrams.net" modified="2023-06-30T17:47:28.289Z" agent="Mozilla/5.0 (X11; Ubuntu; Linux x86_64; rv:109.0) Gecko/20100101 Firefox/114.0" version="21.5.1" etag="obTF9WCHNpSVldiQLNbg" type="github">
  <diagram name="PÃ¡gina-1" id="pnQBttZeSGzh_jyKtbap">
    <mxGraphModel>
      <root>
        <mxCell id="0" />
        <mxCell id="1" parent="0" />
      </root>
    </mxGraphModel>
  </diagram>
</mxfile>
